<svg xmlns="http://www.w3.org/2000/svg" xmlns:xlink="http://www.w3.org/1999/xlink" viewBox="0 0 2047.33 646.06"><defs><clipPath id="a"><path d="M419.09,381.14H382.81c-5,0-13.4-2.24-16.48-6.13a17.94,17.94,0,0,1-3.4-14.34,255.68,255.68,0,0,0,2.81-39.46c-.31-17.74-9.8-30.75-27.86-35.42-15.48-4-26.9-4.19-46.44.65-26.14,6.5-43.65,25.2-52,55.61-5.12,18.62-8.78,37.95-12.3,56.64-.89,4.69-1.77,9.38-2.68,14.05-3.73,19.29-7.16,39-10.47,58l-2.17,12.44c-2.81,16.07-5.26,35-2.11,53.5,3.94,23.12,17.44,38.88,42.57,41.84,70.91,8.34,123.21-53,132.12-60.73,4.56-4,13.84-12.75,22.21-20.74,4.43-4.22,12.25.39,11.17,6.59l-11.68,67.09c-1,1.06-2.06,2.07-2.95,3-29.25,30-73.75,68.49-129.46,71.69-49,2.81-69.52-4.09-86-10.24-33.68-12.55-52.9-39.68-58.14-81.07-3.85-30.5.59-61.39,5.47-90.42,4.73-28,9.89-58.2,15.62-88.76,5.95-31.75,13.24-63.36,27.46-86.21,22.18-35.6,53.58-56.9,94.93-65.63,33.34-7.08,66.92-3.91,95.8,1.59,45,8.61,76.11,52.1,72.34,101.17-1.3,17-3.15,33.65-3.7,38.35C436.34,373.69,428.28,381.14,419.09,381.14Zm731,90.2h-30a17.26,17.26,0,0,1-13.23-6,17.57,17.57,0,0,1-3.85-14.21c.65-4.07,1.28-8.12,1.85-12.17a99.18,99.18,0,0,0,1.33-16.64c-.46-16.82-7.79-24.9-25.26-27.88a77.64,77.64,0,0,0-38.78,2.77c-14.09,4.79-23.06,15.95-26.64,33.18-6,29-11.45,59.73-17.58,99.74-2,13.07.12,23.66,6.32,31.49,6.92,8.73,18.93,15.51,34.87,16.61a136.54,136.54,0,0,0,18.41-.16c27.79-2.11,67.16-25.69,84.84-39.89,2.14-1.72,5.31-4,8.54-6.63,4.85-3.87,12.51,1,11.46,7.27l-7.82,47.06a6,6,0,0,1-2,3.69c-26,22.17-53.65,45.55-102,49-47.17,3.38-64.66-3.66-80.7-9.15a75.61,75.61,0,0,1-13.7-6.23c-.82-.47-1.63-.94-2.43-1.43l0,0c-23.89-14.43-36.71-40.41-34.94-72.16,1.26-22.82,5.28-45.95,9.17-68.33l1.18-6.82c3.18-18.38,6.46-37.38,12.74-55.2,16-45.35,49.75-72.19,100.37-79.81,27-4,54.59-3.14,77.76,2.74,40.94,10.43,59.42,40.14,53.45,85.88-1.16,8.89-2.69,17.4-4.57,27.62A19.33,19.33,0,0,1,1150.11,471.34Zm540.25,65.59c.46-6.58-5.42-10.81-10.61-7.1-7.39,5.26-18.68,14.23-31.17,21.27-43.78,24.68-75,31.55-95.63,28-38.75-7.86-39-29.53-32.46-55.29a7,7,0,0,1,6.69-5.41l16.6-.92c18.42-1.24,143.86-15.27,158.69-79.93,1.38-6,19.43-74.34-48.38-94-27.08-7.86-56.23-8.95-89.16-3-44,7.91-81.19,39.55-94.66,80.58-4.71,14.3-7.68,29.1-9.74,40.4-4.35,23.74-9.27,50.66-11.16,77.4-.27,3.85-.32,7.59-.26,11.26-1.56,31.43,10.83,56.22,34.52,70.55l.07,0c.81.48,1.61,1,2.43,1.42,3.89,2.26,32.36,20.73,89.27,16.57,42.47-3.1,88.41-34.27,110.89-56.14a6.61,6.61,0,0,0,2-4.87C1688.25,570.86,1689.24,552.42,1690.36,536.93Zm253.88,92.17h-42.19a11.35,11.35,0,0,1-11.18-8.89l-1.92-8.54a8.43,8.43,0,0,0-5.86-6.3,9.22,9.22,0,0,0-8.64,1.9c-1.2,1-2.42,2-3.64,3-21.65,17.6-46.65,28.77-74.86,28.77q-5.35,0-10.87-.42c-8.6-.68-18.66-1.73-28.07-4.48-27.32-7.92-42.52-29.44-43.56-57.87-.78-21.39,1.75-43.11,4.33-61.52,4.15-29.57,8.88-55.5,14.47-79.31,8.6-36.69,25.62-62.72,52-79.55,19.91-12.69,43.28-18.58,73.61-18.07,19,.22,35.38,4.28,50.11,12.4a8.68,8.68,0,0,0,8.21.07,9.67,9.67,0,0,0,5.19-6.93l.58-3.26c2.58-14.68,5.11-29,7.57-43.4,2.94-17.12,4.77-27.4,8.17-45.82,1-8.19,7.36-13.76,15.86-13.76,16.62-.27,33.61-.28,49.51-.23h4.58A11.45,11.45,0,0,1,2019,250.44h0l-62.32,368.08A12.81,12.81,0,0,1,1944.24,629.1ZM895.82,562.34c-.2-4.19-5-6.87-8.43-4.71-5.71,3.63-12.68,7.93-15.58,9.34-12.63,5.87-13.5-.53-14-5a57,57,0,0,1,1-8.35l.67-4.05c3-17.95,5.36-32.58,8.42-50.52,3-17.68,6.86-38.26,9.91-55.93s6.09-35.35,9.11-53c1.59-9.28,3.1-18.57,4.62-27.94l.65-4a10.77,10.77,0,0,0-2.34-8.69,10.51,10.51,0,0,0-8.07-3.71l-43.94-.07a11.69,11.69,0,0,0-10.6,6.93,8.38,8.38,0,0,1-5.4,4.67,8.28,8.28,0,0,1-7.27-1.33c-16.09-12.14-35.65-18.25-59.78-18.65-29.87-.6-53.41,5.28-73.59,18.2-26.23,16.79-43.13,42.61-51.69,79C624,457.76,618.63,485.83,613.93,519c-2.49,17.61-4.95,38.42-4.2,59.24,1,28.7,16.17,48.12,43.76,56.13,8.42,2.45,17.38,3.38,26.6,4.19,4.06.35,8.07.54,12,.54,30.83,0,62.57-11,86.33-32.45,1.31-1.18,2.68-2.3,4.23-3.57l.59-.5c3.21,14.06,20.62,39.14,62.71,34.67,26-2.76,41.26-18.54,55.7-35.74a5.23,5.23,0,0,0,.46-5.64C897.15,585.41,896.2,570.47,895.82,562.34Zm344.92,66.72h-46c-15.42,0-16-8.88-15.31-13.29l61.89-368.34c1.31-7.75,7.76-10.59,15.57-10.59h46c13.92,0,16.37,6.35,15.27,12.51l-31.9,189.56a12.11,12.11,0,0,0,2.6,9.81c2.23,2.67,11.23,2.11,13.35-.2,32.08-35,70.71-77.22,91.66-103.77a31.06,31.06,0,0,1,24.19-11.84l53.77.09c5.91,0,10.19-.7,12.59,4.56s-1.38,9.37-5.12,14.09c0,0-87.85,98.83-108.38,124.32-3,3.78-3.37,6.41-1.4,10.89,14,31.83,49.89,96.81,63.21,127.56,2.1,4.81,6.5,14.75-9,14.75h-9.43c-12.52,0-35.27,0-46.85.07h-.13c-15.25-.26-17.25-3.34-22.16-14.4-6.08-13.65-11.93-27.37-17.91-41.05q-9.75-22.26-19.43-44.55c-3.73-8.66-13.83-13.69-23.41-14.21a13.24,13.24,0,0,0-13,11l-15.23,92.25C1253.88,628.56,1248.54,629.06,1240.74,629.06ZM613.85,402.78A13.46,13.46,0,0,1,603,411.7c-4.32.54-8.26,1.23-12.43,2.15-35.85,8-55.68,29.08-62.39,66.31-5.68,31.43-11.06,63.43-16.27,94.39q-3.75,22.22-7.53,44.42c-.05.3-.13.73-.23,1.26a10.69,10.69,0,0,1-10.69,8.67l-56,.08a11.86,11.86,0,0,1-9.12-4.2,12,12,0,0,1-2.59-9.76l43.55-258.28a13.23,13.23,0,0,1,12.87-11l46.78-.09a11.7,11.7,0,0,1,11.86,11.24l.27,5.26a8.7,8.7,0,0,0,5.45,7.82,9.61,9.61,0,0,0,9.88-1.61c15-12.18,39.18-26.5,70.45-26.5.8,0,1.61,0,2.42,0a11.32,11.32,0,0,1,10.42,7.22,12.61,12.61,0,0,1-2.46,13.17C627.32,373.37,619.44,387,613.85,402.78Zm-553,225.85h-46a14.82,14.82,0,0,1-11.41-5.25A15.09,15.09,0,0,1,.22,611.16C6.31,574.79,9.54,554.57,12.65,535c3.2-20.13,6.52-41,13-79.36a16.57,16.57,0,0,1,16.13-13.77H87.68a14.84,14.84,0,0,1,11.41,5.24,15.12,15.12,0,0,1,3.25,12.23c-6.09,36.29-9.3,56.51-12.41,76.08-3.21,20.16-6.52,41-13,79.45A16.57,16.57,0,0,1,60.83,628.63ZM1987,625.37h-7.93l5.34-29.39h-10.8l1.22-6.66h29.53l-1.21,6.66h-10.81Zm22.36,0H2002l6.55-36h11.17l3.92,24.79h.09l12.49-24.79h11.15l-6.55,36h-7.42l4.65-25.55h-.1l-13.48,25.55h-6.11l-4.24-25.3h-.1Zm-1203.61-206c-6.49,37.08-10.3,59.89-17.3,97.64-9.14,49.31-62.47,69.34-84.41,61.67-14.91-5.21-21.86-15.88-19.72-32.51,3-23,6.74-46.35,10.39-68.93l.23-1.41c1.94-12,4.95-27.64,8-40,5.73-23.32,24.61-38.61,49.28-39.9,2.07-.1,4.12-.16,6.14-.16a105.78,105.78,0,0,1,38.5,7.13A14.77,14.77,0,0,1,805.76,419.41Zm1059.37-22.93h-.08c-1.13,0-2.24-.05-3.34-.05-28.31,0-46.78,12.4-54.92,36.91-3.28,9.87-5,20.44-6.67,30.67-.47,2.83-.93,5.67-1.42,8.48l-.41,2.31c-3.76,21.47-7.65,43.67-10.74,65.57-2.73,19.22,4.64,32.3,20.23,35.88,9,2.07,71.11,2,85.53-64.55,6.54-30.18,8.25-50.48,13.51-80.47l3-17.51c.76-4.27,0-5.93-3.35-7.37C1890.59,399.45,1877.2,396.22,1865.13,396.48Zm-296.44.85A70.65,70.65,0,0,1,1616,396c11.82,3.91,19.6,12.34,19.24,27.39-.88,36.5-97.5,43-97.5,43a6.13,6.13,0,0,1-4.72-2.13,6.33,6.33,0,0,1-1.47-5C1535.23,431.65,1548.8,405.65,1568.69,397.33ZM94.7,412.11H54A17.58,17.58,0,0,1,40.5,405.9a17.76,17.76,0,0,1-3.84-14.42l5-29.9a19.58,19.58,0,0,1,19.09-16.27h40.75A17.58,17.58,0,0,1,115,351.53,17.77,17.77,0,0,1,118.81,366l-5,29.92A19.57,19.57,0,0,1,94.7,412.11ZM1106,238.54l-49.24-25.84,52.15-26.28,28.31-50.58L1161,186.71l49.43,26-52.66,26.77L1130,289.57Zm257-64.3-35.47-18.6,37.57-18.94,20.38-36.42,17.18,36.63,35.59,18.73-37.92,19.27-20,36.08ZM1251.58,49.93l-23.94-12.56L1253,24.59,1266.76,0l11.59,24.73,24,12.64-25.61,13-13.52,24.35Z" style="fill:none"/></clipPath><linearGradient id="b" y1="1347.03" x2="2048" y2="-700.97" gradientUnits="userSpaceOnUse"><stop offset="0" stop-color="#0c9eef"/><stop offset="0.5" stop-color="#635bd4"/><stop offset="1" stop-color="#c272ff"/></linearGradient></defs><title>Artboard 1</title><g style="clip-path:url(#a)"><rect y="-700.97" width="2048" height="2048" style="fill:url(#b)"/></g></svg>